Results
version=1
nRows=24
nColumns=24
inDegrees=yes
endheader
time	pelvis_tilt	pelvis_list	pelvis_rotation	pelvis_tx	pelvis_ty	pelvis_tz	hip_flexion_r	hip_adduction_r	hip_rotation_r	knee_angle_r	ankle_angle_r	subtalar_angle_r	mtp_angle_r	hip_flexion_l	hip_adduction_l	hip_rotation_l	knee_angle_l	ankle_angle_l	subtalar_angle_l	mtp_angle_l	lumbar_extension	lumbar_bending	lumbar_rotation
      1.09150000	     -5.39450267	      3.69441852	     -4.93614263	      0.34611914	      1.06088702	      0.32488802	     20.23969014	     -6.67487407	     -3.82707671	    -71.44296279	     -1.73597291	     -8.18283336	      8.75279124	     14.69811776	      5.44228425	      1.85838475	    -15.63020561	      6.47152931	     -3.51194803	      3.07185976	    -12.60804557	     -5.71837613	     -0.33949110
      1.09566667	     -5.32209379	      3.57442781	     -4.88037580	      0.35148978	      1.06204539	      0.32470617	     20.67802285	     -6.52979397	     -3.95700483	    -71.17918044	     -1.38454010	     -8.04728009	      8.73754164	     14.04281388	      5.37115403	      2.03420024	    -15.11291539	      6.46812385	     -3.59937394	      3.07058117	    -12.68575759	     -5.54399613	     -0.55392099
      1.09983333	     -5.29872725	      3.46818577	     -4.81291395	      0.35684337	      1.06306256	      0.32452416	     21.16727037	     -6.39452963	     -4.09207639	    -70.88341461	     -0.99685789	     -7.88880029	      8.72830309	     13.44660241	      5.30953858	      2.22753330	    -14.60011033	      6.39948533	     -3.71279335	      3.06779149	    -12.71922880	     -5.37338273	     -0.76349431
      1.10400000	     -5.24253197	      3.31862412	     -4.73518296	      0.36217258	      1.06412246	      0.32432786	     21.59575934	     -6.21365587	     -4.24690676	    -70.51333258	     -0.62046067	     -7.67707066	      8.73701079	     12.83148881	      5.19864124	      2.37615187	    -14.12928387	      6.40531770	     -3.69560084	      3.06770097	    -12.81074570	     -5.15265132	     -0.86850757
      1.10816667	     -5.18258104	      3.20509567	     -4.65475723	      0.36752625	      1.06512725	      0.32412865	     22.01752085	     -6.08013569	     -4.40386284	    -70.11101651	     -0.21933996	     -7.38563004	      8.75596949	     12.19359340	      5.12986907	      2.57284086	    -13.61116830	      6.38538957	     -3.79642133	      3.06577478	    -12.86991999	     -4.96927593	     -1.09158070
      1.11233333	     -5.16448196	      3.06460253	     -4.56115937	      0.37285816	      1.06603319	      0.32393576	     22.46689082	     -5.90660895	     -4.57087416	    -69.64929883	      0.17022714	     -7.13523409	      8.77717557	     11.62274284	      5.02158278	      2.73241174	    -13.13855064	      6.33768783	     -3.80505980	      3.06389123	    -12.90526529	     -4.75500093	     -1.21149750
      1.11650000	     -5.09941349	      2.97295139	     -4.47615193	      0.37817616	      1.06693558	      0.32374465	     22.87330990	     -5.79442928	     -4.72123712	    -69.17061202	      0.58380389	     -6.79736818	      8.82699191	     10.97024754	      4.97704853	      2.99586003	    -12.58813822	      6.25522130	     -4.01717092	      3.05867419	    -12.98738920	     -4.59924628	     -1.50018612
      1.12066667	     -5.04075581	      2.84129882	     -4.37763125	      0.38348909	      1.06780825	      0.32353564	     23.26091200	     -5.63972790	     -4.89605580	    -68.62217028	      0.97197663	     -6.44172340	      8.87366085	     10.35029771	      4.88171149	      3.19223345	    -12.09915755	      6.25411966	     -4.07782525	      3.05692446	    -13.06753420	     -4.38915321	     -1.65505311
      1.12483333	     -4.98203440	      2.71859734	     -4.27726334	      0.38879511	      1.06862804	      0.32334844	     23.64016355	     -5.49188622	     -5.06773325	    -68.03377976	      1.36418157	     -6.07172368	      8.92464391	      9.73109287	      4.79211295	      3.39422445	    -11.60773431	      6.23221818	     -4.15626687	      3.05398228	    -13.14911578	     -4.19457993	     -1.83095304
      1.12900000	     -4.95832238	      2.60194425	     -4.17138501	      0.39410038	      1.06932161	      0.32314985	     24.05034301	     -5.34946574	     -5.24154359	    -67.40868126	      1.75415079	     -5.69780127	      8.98230859	      9.15405355	      4.70542009	      3.60691834	    -11.12235076	      6.19831132	     -4.25262593	      3.05028453	    -13.18410735	     -3.99888826	     -2.01702269
      1.13316667	     -4.93873616	      2.49954616	     -4.06710105	      0.39939598	      1.06995211	      0.32296897	     24.46046959	     -5.21995953	     -5.40869242	    -66.74990524	      2.13971459	     -5.32472518	      9.05333520	      8.58175507	      4.63111497	      3.83088669	    -10.63276045	      6.14502256	     -4.38368298	      3.04542193	    -13.21861412	     -3.82566902	     -2.21978219
      1.13733333	     -4.88060502	      2.38998572	     -3.96180322	      0.40467675	      1.07059886	      0.32279776	     24.81380037	     -5.08513196	     -5.58021020	    -66.04256273	      2.51367835	     -4.94257266	      9.12288745	      7.97200348	      4.54722097	      4.03698081	    -10.14955033	      6.11862235	     -4.47893499	      3.04109093	    -13.29927844	     -3.63957048	     -2.38972543
      1.14150000	     -4.87762295	      2.29593282	     -3.85444781	      0.40995965	      1.07108240	      0.32262726	     25.22308064	     -4.96287960	     -5.74542296	    -65.30550322	      2.88314635	     -4.55192138	      9.19451221	      7.43149294	      4.47437770	      4.24460133	     -9.68590106	      6.09088833	     -4.59176749	      3.03616421	    -13.30791298	     -3.47105581	     -2.56658755
      1.14566667	     -4.84531268	      2.20818310	     -3.75019772	      0.41521984	      1.07155708	      0.32248061	     25.59196950	     -4.84493983	     -5.90312797	    -64.53090793	      3.24992819	     -4.21270707	      9.31008718	      6.84985767	      4.40749999	      4.48489573	     -9.19365544	      5.98867633	     -4.78578489	      3.02647923	    -13.36167063	     -3.31280208	     -2.78507157
      1.14983333	     -4.82877359	      2.10800569	     -3.64791152	      0.42048411	      1.07195634	      0.32233134	     25.96338316	     -4.71269513	     -6.06229120	    -63.71043577	      3.57820984	     -3.83285734	      9.38353052	      6.30764322	      4.32133250	      4.65928203	     -8.75692806	      6.02521748	     -4.83319187	      3.02325732	    -13.39279238	     -3.13974964	     -2.91361473
      1.15400000	     -4.82111267	      2.03140262	     -3.54684253	      0.42573648	      1.07226886	      0.32220731	     26.34130559	     -4.60293689	     -6.20990247	    -62.86427795	      3.91732511	     -3.46775570	      9.46396235	      5.77439802	      4.25688830	      4.85127896	     -8.31139456	      6.01262623	     -4.93517581	      3.01811724	    -13.41377499	     -2.99371520	     -3.09170922
      1.15816667	     -4.82340318	      1.96538931	     -3.45063277	      0.43097147	      1.07249866	      0.32209700	     26.72348847	     -4.49845697	     -6.34252092	    -61.98579483	      4.25209188	     -3.14588164	      9.57100994	      5.25152542	      4.20130834	      5.06132623	     -7.85989739	      5.95023496	     -5.09132030	      3.00979913	    -13.43195807	     -2.85978070	     -3.28271584
      1.16233333	     -4.82124608	      1.89289694	     -3.35654586	      0.43621184	      1.07268520	      0.32199516	     27.08605461	     -4.38716621	     -6.47499491	    -61.06495950	      4.55008776	     -2.81159555	      9.65543237	      4.73618144	      4.13520922	      5.23397368	     -7.43916306	      5.97238814	     -5.16849283	      3.00528269	    -13.45029321	     -2.72074091	     -3.42029594
      1.16650000	     -4.81452678	      1.83109509	     -3.26674451	      0.44145188	      1.07282326	      0.32190458	     27.43333623	     -4.28709133	     -6.60220033	    -60.10914626	      4.83616497	     -2.49780415	      9.73387767	      4.21856659	      4.07837339	      5.39676849	     -7.02216443	      5.98944456	     -5.25863142	      3.00090116	    -13.46154970	     -2.59389247	     -3.56724597
      1.17066667	     -4.82521545	      1.78335409	     -3.18459748	      0.44667189	      1.07286462	      0.32185149	     27.79449823	     -4.19031618	     -6.70310912	    -59.12504488	      5.12242660	     -2.21103355	      9.82331810	      3.72136732	      4.03212284	      5.57592455	     -6.60476022	      5.97655921	     -5.37435977	      2.99457225	    -13.47373910	     -2.48376260	     -3.72593916
      1.17483333	     -4.86656980	      1.72407094	     -3.10747753	      0.45191220	      1.07281062	      0.32181933	     28.16906715	     -4.07316348	     -6.79627752	    -58.09085330	      5.36856585	     -1.99164515	      9.86550023	      3.28009720	      3.96648323	      5.66403893	     -6.24021247	      6.00659543	     -5.37796507	      2.99282494	    -13.42992781	     -2.36857052	     -3.79608819
      1.17900000	     -4.84166640	      1.69790819	     -3.03312440	      0.45712469	      1.07279152	      0.32176976	     28.47149072	     -4.00393858	     -6.88395393	    -57.04493001	      5.63142059	     -1.69643603	      9.95489175	      2.73958299	      3.94341957	      5.86918788	     -5.81094146	      6.01573178	     -5.54089713	      2.98731700	    -13.48317042	     -2.28419966	     -3.99595415
      1.18316667	     -4.88935428	      1.65540920	     -2.97096113	      0.46234853	      1.07261980	      0.32178866	     28.83200207	     -3.89058892	     -6.94085723	    -55.94137152	      5.84869115	     -1.52711283	      9.99524788	      2.30946907	      3.89028549	      5.95449627	     -5.45362545	      6.04766952	     -5.54698231	      2.98592992	    -13.43239760	     -2.18865831	     -4.05751128
      1.18733333	     -4.92346190	      1.63903971	     -2.91070883	      0.46756654	      1.07239077	      0.32179972	     29.17353638	     -3.81133279	     -6.99111794	    -54.82266710	      6.07478359	     -1.31412784	     10.04248107	      1.85987311	      3.86700007	      6.07013162	     -5.08354678	      6.08232676	     -5.60016933	      2.98396626	    -13.41232654	     -2.11890562	     -4.16422263
